<svg xmlns="http://www.w3.org/2000/svg" xmlns:xlink="http://www.w3.org/1999/xlink" xml:space="preserve" version="1.1" style="shape-rendering:geometricPrecision;text-rendering:geometricPrecision;image-rendering:optimizeQuality;" viewBox="0 0 281 242.5" x="0px" y="0px" fill-rule="evenodd" clip-rule="evenodd"><defs><style type="text/css">

   
  </style></defs><g><path fill="#ff5553" class="fil0" d="M179 5l0 86 -25 0c-4,0 -7,5 -4,9l61 91c2,3 7,3 9,0l60 -91c3,-4 0,-9 -4,-8l-25 -1 0 -86c0,-3 -3,-5 -5,-5l-61 0c-3,0 -6,2 -6,5z"/><path fill="#3badfd" class="fil0" d="M31 188l0 -86 -26 0c-4,0 -6,-5 -4,-8l61 -92c2,-3 7,-3 9,1l61 91c2,3 -1,8 -5,8l-25 0 0 86c0,3 -2,6 -5,6l-61 0c-3,0 -5,-3 -5,-6z"/></g></svg>